<?xml version="1.0" encoding="utf-8"?>
<!-- Generator: Adobe Illustrator 25.4.1, SVG Export Plug-In . SVG Version: 6.00 Build 0)  -->
<svg version="1.1" id="Layer_1_copy" xmlns="http://www.w3.org/2000/svg" xmlns:xlink="http://www.w3.org/1999/xlink" x="0px"
	 y="0px" viewBox="0 0 1280 1280" style="enable-background:new 0 0 1280 1280;" xml:space="preserve">
<style type="text/css">
	.st0{fill:#00A99D;}
	.st1{fill:#FFFFFF;}
	.st2{fill:#0071BC;}
	.st3{fill:none;}
	.st4{fill:#603813;}
	.st5{fill:#1B1464;}
	.st6{fill:#2E3192;}
	.st7{fill:#B3B3B3;}
	.st8{fill:#F2F2F2;}
</style>
<path class="st0" d="M1268,1280H12c-6.6,0-12-5.4-12-12V12C0,5.4,5.4,0,12,0h1256c6.6,0,12,5.4,12,12v1256
	C1280,1274.6,1274.6,1280,1268,1280z"/>
<path class="st1" d="M513.89,378.61c0,24.06-12.98,43.54-29.02,43.54"/>
<path class="st2" d="M309.86,679.81c-20.47,65.61-144.57,19.52-277.46-103.05"/>
<path class="st3" d="M-22.58,486.9c0-83.48-43.9-151.03-98.15-151.03"/>
<path class="st4" d="M236.09,702.75L236.09,702.75c-3.2,0-5.83-2.62-5.83-5.83V494.63c0-3.2,2.62-5.83,5.83-5.83h0
	c3.2,0,5.83,2.62,5.83,5.83v202.29C241.91,700.13,239.29,702.75,236.09,702.75z"/>
<path class="st5" d="M388.08,610.17c-29.7,126.91-150.22,162.85-269.46,80.36"/>
<path class="st6" d="M346.34,664.35C298.58,773.77,176.75,755,73.94,622.38"/>
<path class="st7" d="M316.68,354.26c83.8,131.74,2.3,240.19-182.21,242.47"/>
<path class="st7" d="M247.67,322.89c53.5-2.66,98.86,50.21,101.41,118.2"/>
<path class="st8" d="M245.97,323.61c130.78,93.45,81.94,215.77-109.18,273.48"/>
<g>
	<g>
		<path class="st2" d="M372.04,536.85l4.27-2.7c7.47,10.79,18.15,16.86,33.45,16.86c17.79,0,31.67-10.79,31.67-27.31
			c0-10.11-6.05-16.86-15.3-21.92l-15.66-8.77c-9.61-5.39-18.5-13.15-18.5-24.95c0-14.83,13.17-27.98,32.74-27.98
			c14.23,0,25.27,6.74,31.32,14.83l-3.91,3.03c-6.05-7.42-15.66-13.49-28.47-13.49c-16.01,0-26.33,11.8-26.33,22.93
			c0,10.79,7.47,16.86,15.66,21.24l15.3,8.43c11.03,6.07,18.5,13.82,18.5,25.96c0,19.56-16.37,32.37-37.72,32.37
			C392.33,555.4,379.87,548.65,372.04,536.85z"/>
		<path class="st2" d="M486.27,442.11h5.34l-23.49,111.26h-5.34L486.27,442.11z"/>
		<path class="st2" d="M504.77,511.9c0-32.37,21.71-71.81,59.07-71.81c13.17,0,21.71,7.42,27.05,15.51l-4.27,2.7
			c-4.63-7.75-12.1-13.82-23.13-13.82c-34.16,0-53.38,37.76-53.38,66.42c0,22.59,10.32,40.12,34.16,40.12
			c11.39,0,19.93-4.05,28.83-11.13l3.2,3.37c-9.96,7.75-19.57,12.14-32.38,12.14C517.58,555.4,504.77,536.51,504.77,511.9z"/>
		<path class="st2" d="M620.43,442.11h5.34l-23.49,111.26h-5.34L620.43,442.11z"/>
		<path class="st2" d="M659.21,442.11h5.34l-22.42,106.88h53.38l-1.07,4.38h-58.72L659.21,442.11z"/>
		<path class="st2" d="M740.17,507.35l-19.4-65.24h5.34l10.5,36.24c2.31,8.09,4.45,15.68,6.94,23.94h0.53
			c5.87-7.92,11.57-16.01,17.44-23.94l26.87-36.24h5.69l-48.58,65.24l-9.79,46.02h-5.34L740.17,507.35z"/>
		<path class="st2" d="M878.07,442.11h5.34l-22.42,106.88h53.38l-1.07,4.38h-58.72L878.07,442.11z"/>
		<path class="st2" d="M954.93,442.11h5.34l-23.49,111.26h-5.34L954.93,442.11z"/>
		<path class="st2" d="M993.72,442.11h6.05l32.74,81.93l8.54,22.25h0.71c1.78-10.45,3.56-21.24,5.69-31.69l15.3-72.49h5.34
			l-23.49,111.26h-5.69l-32.38-81.59l-8.9-23.26h-0.71c-1.78,10.79-3.92,21.24-6.05,31.36l-15.3,73.5h-5.34L993.72,442.11z"/>
		<path class="st2" d="M1100.47,442.11h60.85l-1.07,4.38h-55.51l-9.61,45.52h46.97l-1.07,4.38h-46.62l-11.39,52.6h57.29l-1.07,4.38
			h-62.28L1100.47,442.11z"/>
		<path class="st2" d="M1159.19,536.85l4.27-2.7c7.47,10.79,18.15,16.86,33.45,16.86c17.79,0,31.67-10.79,31.67-27.31
			c0-10.11-6.05-16.86-15.3-21.92l-15.66-8.77c-9.61-5.39-18.51-13.15-18.51-24.95c0-14.83,13.17-27.98,32.74-27.98
			c14.23,0,25.27,6.74,31.32,14.83l-3.92,3.03c-6.05-7.42-15.66-13.49-28.47-13.49c-16.01,0-26.33,11.8-26.33,22.93
			c0,10.79,7.47,16.86,15.66,21.24l15.3,8.43c11.03,6.07,18.5,13.82,18.5,25.96c0,19.56-16.37,32.37-37.72,32.37
			C1179.47,555.4,1167.02,548.65,1159.19,536.85z"/>
	</g>
</g>
<path class="st1" d="M127.47,598.14c77.6-8.26,131.36-131.37,120.2-275.25"/>
<path class="st3" d="M96.43,231.16c0-28.82,22.79-52.14,50.96-52.14"/>
<path d="M149.98,328.68c0.45-5.19,19.75-7.76,43.15-5.75"/>
<path d="M150.57,329.61c0.39-4.54-20.6-10.05-46.94-12.32"/>
<path d="M116.43,243.97c0.68-5.17,20.07-6.89,43.36-3.85"/>
<path d="M117.97,244.1c0.59-4.52-20.14-10.95-46.36-14.37"/>
<g>
	<g>
		<path class="st1" d="M365.67,536.85l4.27-2.7c7.47,10.79,18.15,16.86,33.45,16.86c17.79,0,31.67-10.79,31.67-27.31
			c0-10.11-6.05-16.86-15.3-21.92l-15.66-8.77c-9.61-5.39-18.5-13.15-18.5-24.95c0-14.83,13.17-27.98,32.74-27.98
			c14.23,0,25.27,6.74,31.32,14.83l-3.91,3.03c-6.05-7.42-15.66-13.49-28.47-13.49c-16.01,0-26.33,11.8-26.33,22.93
			c0,10.79,7.47,16.86,15.66,21.24l15.3,8.43c11.03,6.07,18.5,13.82,18.5,25.96c0,19.56-16.37,32.37-37.72,32.37
			C385.95,555.4,373.5,548.65,365.67,536.85z"/>
		<path class="st1" d="M479.9,442.11h5.34l-23.49,111.26h-5.34L479.9,442.11z"/>
		<path class="st1" d="M498.4,511.9c0-32.37,21.71-71.81,59.07-71.81c13.17,0,21.71,7.42,27.05,15.51l-4.27,2.7
			c-4.63-7.75-12.1-13.82-23.13-13.82c-34.16,0-53.38,37.76-53.38,66.42c0,22.59,10.32,40.12,34.16,40.12
			c11.39,0,19.93-4.05,28.83-11.13l3.2,3.37c-9.96,7.75-19.57,12.14-32.38,12.14C511.21,555.4,498.4,536.51,498.4,511.9z"/>
		<path class="st1" d="M614.05,442.11h5.34l-23.49,111.26h-5.34L614.05,442.11z"/>
		<path class="st1" d="M652.84,442.11h5.34l-22.42,106.88h53.38l-1.07,4.38h-58.72L652.84,442.11z"/>
		<path class="st1" d="M733.8,507.35l-19.4-65.24h5.34l10.5,36.24c2.31,8.09,4.45,15.68,6.94,23.94h0.53
			c5.87-7.92,11.57-16.01,17.44-23.94l26.87-36.24h5.69l-48.58,65.24l-9.79,46.02h-5.34L733.8,507.35z"/>
		<path class="st1" d="M871.69,442.11h5.34l-22.42,106.88h53.38l-1.07,4.38H848.2L871.69,442.11z"/>
		<path class="st1" d="M948.56,442.11h5.34l-23.49,111.26h-5.34L948.56,442.11z"/>
		<path class="st1" d="M987.34,442.11h6.05l32.74,81.93l8.54,22.25h0.71c1.78-10.45,3.56-21.24,5.69-31.69l15.3-72.49h5.34
			l-23.49,111.26h-5.69l-32.38-81.59l-8.9-23.26h-0.71c-1.78,10.79-3.92,21.24-6.05,31.36l-15.3,73.5h-5.34L987.34,442.11z"/>
		<path class="st1" d="M1094.1,442.11h60.85l-1.07,4.38h-55.51l-9.61,45.52h46.97l-1.07,4.38h-46.62l-11.39,52.6h57.29l-1.07,4.38
			h-62.28L1094.1,442.11z"/>
		<path class="st1" d="M1152.82,536.85l4.27-2.7c7.47,10.79,18.15,16.86,33.45,16.86c17.79,0,31.67-10.79,31.67-27.31
			c0-10.11-6.05-16.86-15.3-21.92l-15.66-8.77c-9.61-5.39-18.51-13.15-18.51-24.95c0-14.83,13.17-27.98,32.74-27.98
			c14.23,0,25.27,6.74,31.32,14.83l-3.92,3.03c-6.05-7.42-15.66-13.49-28.47-13.49c-16.01,0-26.33,11.8-26.33,22.93
			c0,10.79,7.47,16.86,15.66,21.24l15.3,8.43c11.03,6.07,18.5,13.82,18.5,25.96c0,19.56-16.37,32.37-37.72,32.37
			C1173.1,555.4,1160.65,548.65,1152.82,536.85z"/>
	</g>
</g>
<path d="M264.63,296.81c0.87-5.14,20.31-6.14,43.47-2.23"/>
<path d="M266.13,297.11c0.76-4.49-19.72-11.69-45.79-16.09"/>
<path class="st2" d="M507.85,378.61c0,24.81-10.28,44.89-22.98,44.89"/>
</svg>
