<?xml version="1.0" encoding="utf-8"?>
<!-- Generator: Adobe Illustrator 25.4.1, SVG Export Plug-In . SVG Version: 6.00 Build 0)  -->
<svg version="1.1" id="Layer_1_copy" xmlns="http://www.w3.org/2000/svg" xmlns:xlink="http://www.w3.org/1999/xlink" x="0px"
	 y="0px" viewBox="0 0 1280 1280" style="enable-background:new 0 0 1280 1280;" xml:space="preserve">
<style type="text/css">
	.st0{fill:url(#SVGID_1_);}
	.st1{fill:#146DEF;}
	.st2{fill:#0071BC;}
	.st3{fill:none;}
	.st4{fill:#603813;}
	.st5{fill:#1B1464;}
	.st6{fill:#2E3192;}
	.st7{fill:#B3B3B3;}
	.st8{fill:#F2F2F2;}
	.st9{fill:#FFFFFF;}
	.st10{fill:#0652DD;}
	.st11{font-family:'MyriadPro-Regular';}
	.st12{font-size:167.2919px;}
</style>
<linearGradient id="SVGID_1_" gradientUnits="userSpaceOnUse" x1="27.8263" y1="483.9898" x2="1277.7812" y2="483.9898">
	<stop  offset="0" style="stop-color:#FFF33B"/>
	<stop  offset="4.010540e-02" style="stop-color:#FEE72E"/>
	<stop  offset="0.1171" style="stop-color:#FED51B"/>
	<stop  offset="0.1964" style="stop-color:#FDCA10"/>
	<stop  offset="0.2809" style="stop-color:#FDC70C"/>
	<stop  offset="0.6685" style="stop-color:#F3903F"/>
	<stop  offset="0.8876" style="stop-color:#ED683C"/>
	<stop  offset="1" style="stop-color:#E93E3A"/>
</linearGradient>
<rect x="27.8" y="234.5" class="st0" width="1250" height="499"/>
<path class="st1" d="M513.9,378.6c0,24.1-13,43.5-29,43.5"/>
<path class="st2" d="M306.6,612.7c-14.9,47.7-105.1,14.2-201.7-74.9"/>
<path class="st3" d="M-22.6,486.9c0-83.5-43.9-151-98.2-151"/>
<path class="st4" d="M252.9,629.4L252.9,629.4c-2.3,0-4.2-1.9-4.2-4.2V478.1c0-2.3,1.9-4.2,4.2-4.2l0,0c2.3,0,4.2,1.9,4.2,4.2v147.1
	C257.2,627.5,255.3,629.4,252.9,629.4z"/>
<path class="st5" d="M363.4,562.1c-21.6,92.3-109.2,118.4-195.9,58.4"/>
<path class="st6" d="M333.1,601.5C298.4,681.1,209.8,667.4,135,571"/>
<path class="st7" d="M311.5,376c60.9,95.8,1.7,174.6-132.5,176.3"/>
<path class="st7" d="M257.5,352.3c41.2-2,76.1,36.8,77.9,86.9"/>
<path class="st8" d="M260.4,353.8c95.2,67.9,59.7,156.9-79.5,198.8"/>
<path class="st9" d="M174.5,553.1c56.9-6.7,95.5-96.7,86.3-201.3"/>
<path class="st3" d="M133.2,285.1c0-22.7,18-41.1,40.2-41.1"/>
<path d="M175.4,361.9c0.4-4.1,15.6-6.1,34-4.5"/>
<path d="M175.9,362.6c0.3-3.6-16.3-7.9-37-9.7"/>
<path d="M149,295.2c0.5-4.1,15.8-5.4,34.2-3"/>
<path d="M150.2,295.3c0.5-3.6-15.9-8.6-36.6-11.3"/>
<path d="M265.9,336.8c0.7-4,16-4.8,34.3-1.8"/>
<path d="M267.1,337c0.6-3.5-15.6-9.2-36.1-12.7"/>
<path class="st9" d="M507.9,378.6c0,24.8-10.3,44.9-23,44.9"/>
<text transform="matrix(0.9749 0 0 1 399.082 550.7344)" class="st10 st11 st12">SICILY LINES</text>
<text transform="matrix(0.9749 0 0 1 404.4902 545.6008)" class="st9 st11 st12">SICILY LINES</text>
</svg>
